<mxfile host="app.diagrams.net" agent="Mozilla/5.0 (Windows NT 10.0; Win64; x64) AppleWebKit/537.36 (KHTML, like Gecko) Chrome/132.0.0.0 Safari/537.36" version="26.0.10">
  <diagram name="Page-1" id="AmgezydzJ-hL5-kWS8ET">
    <mxGraphModel dx="1434" dy="780" grid="1" gridSize="10" guides="1" tooltips="1" connect="1" arrows="1" fold="1" page="1" pageScale="1" pageWidth="850" pageHeight="1100" math="0" shadow="0">
      <root>
        <mxCell id="0" />
        <mxCell id="1" parent="0" />
        <mxCell id="jUtKn1EOXljakCH1l-Lu-1" value="" style="ellipse;whiteSpace=wrap;html=1;aspect=fixed;fillColor=#f8cecc;strokeColor=#b85450;" vertex="1" parent="1">
          <mxGeometry x="130" y="130" width="80" height="80" as="geometry" />
        </mxCell>
        <mxCell id="jUtKn1EOXljakCH1l-Lu-46" style="edgeStyle=none;shape=connector;rounded=0;orthogonalLoop=1;jettySize=auto;html=1;entryX=0;entryY=0.5;entryDx=0;entryDy=0;strokeColor=default;align=center;verticalAlign=middle;fontFamily=Helvetica;fontSize=11;fontColor=default;labelBackgroundColor=default;endArrow=classic;" edge="1" parent="1" source="jUtKn1EOXljakCH1l-Lu-2" target="jUtKn1EOXljakCH1l-Lu-10">
          <mxGeometry relative="1" as="geometry" />
        </mxCell>
        <mxCell id="jUtKn1EOXljakCH1l-Lu-2" value="" style="ellipse;whiteSpace=wrap;html=1;aspect=fixed;fillColor=#f8cecc;strokeColor=#b85450;" vertex="1" parent="1">
          <mxGeometry x="260" y="70" width="80" height="80" as="geometry" />
        </mxCell>
        <mxCell id="jUtKn1EOXljakCH1l-Lu-40" style="edgeStyle=none;shape=connector;rounded=0;orthogonalLoop=1;jettySize=auto;html=1;strokeColor=default;align=center;verticalAlign=middle;fontFamily=Helvetica;fontSize=11;fontColor=default;labelBackgroundColor=default;endArrow=classic;" edge="1" parent="1" source="jUtKn1EOXljakCH1l-Lu-3" target="jUtKn1EOXljakCH1l-Lu-1">
          <mxGeometry relative="1" as="geometry" />
        </mxCell>
        <mxCell id="jUtKn1EOXljakCH1l-Lu-3" value="" style="ellipse;whiteSpace=wrap;html=1;aspect=fixed;fillColor=#f8cecc;strokeColor=#b85450;" vertex="1" parent="1">
          <mxGeometry x="90" y="260" width="80" height="80" as="geometry" />
        </mxCell>
        <mxCell id="jUtKn1EOXljakCH1l-Lu-45" style="edgeStyle=none;shape=connector;rounded=0;orthogonalLoop=1;jettySize=auto;html=1;strokeColor=default;align=center;verticalAlign=middle;fontFamily=Helvetica;fontSize=11;fontColor=default;labelBackgroundColor=default;endArrow=classic;" edge="1" parent="1" source="jUtKn1EOXljakCH1l-Lu-4" target="jUtKn1EOXljakCH1l-Lu-8">
          <mxGeometry relative="1" as="geometry" />
        </mxCell>
        <mxCell id="jUtKn1EOXljakCH1l-Lu-4" value="" style="ellipse;whiteSpace=wrap;html=1;aspect=fixed;fillColor=#f8cecc;strokeColor=#b85450;" vertex="1" parent="1">
          <mxGeometry x="230" y="290" width="80" height="80" as="geometry" />
        </mxCell>
        <mxCell id="jUtKn1EOXljakCH1l-Lu-5" value="" style="ellipse;whiteSpace=wrap;html=1;aspect=fixed;fillColor=#dae8fc;strokeColor=#6c8ebf;" vertex="1" parent="1">
          <mxGeometry x="530" y="70" width="80" height="80" as="geometry" />
        </mxCell>
        <mxCell id="jUtKn1EOXljakCH1l-Lu-6" value="" style="ellipse;whiteSpace=wrap;html=1;aspect=fixed;fillColor=#dae8fc;strokeColor=#6c8ebf;" vertex="1" parent="1">
          <mxGeometry x="385" y="220" width="80" height="80" as="geometry" />
        </mxCell>
        <mxCell id="jUtKn1EOXljakCH1l-Lu-31" style="rounded=0;orthogonalLoop=1;jettySize=auto;html=1;" edge="1" parent="1" source="jUtKn1EOXljakCH1l-Lu-7" target="jUtKn1EOXljakCH1l-Lu-5">
          <mxGeometry relative="1" as="geometry" />
        </mxCell>
        <mxCell id="jUtKn1EOXljakCH1l-Lu-32" style="rounded=0;orthogonalLoop=1;jettySize=auto;html=1;entryX=0.5;entryY=0;entryDx=0;entryDy=0;" edge="1" parent="1" source="jUtKn1EOXljakCH1l-Lu-7" target="jUtKn1EOXljakCH1l-Lu-12">
          <mxGeometry relative="1" as="geometry" />
        </mxCell>
        <mxCell id="jUtKn1EOXljakCH1l-Lu-7" value="" style="ellipse;whiteSpace=wrap;html=1;aspect=fixed;fillColor=#dae8fc;strokeColor=#6c8ebf;" vertex="1" parent="1">
          <mxGeometry x="560" y="210" width="80" height="80" as="geometry" />
        </mxCell>
        <mxCell id="jUtKn1EOXljakCH1l-Lu-8" value="" style="ellipse;whiteSpace=wrap;html=1;aspect=fixed;fillColor=#f8cecc;strokeColor=#b85450;" vertex="1" parent="1">
          <mxGeometry x="350" y="350" width="80" height="80" as="geometry" />
        </mxCell>
        <mxCell id="jUtKn1EOXljakCH1l-Lu-39" style="edgeStyle=none;shape=connector;rounded=0;orthogonalLoop=1;jettySize=auto;html=1;entryX=0;entryY=1;entryDx=0;entryDy=0;strokeColor=default;align=center;verticalAlign=middle;fontFamily=Helvetica;fontSize=11;fontColor=default;labelBackgroundColor=default;endArrow=classic;" edge="1" parent="1" source="jUtKn1EOXljakCH1l-Lu-9" target="jUtKn1EOXljakCH1l-Lu-4">
          <mxGeometry relative="1" as="geometry" />
        </mxCell>
        <mxCell id="jUtKn1EOXljakCH1l-Lu-9" value="" style="ellipse;whiteSpace=wrap;html=1;aspect=fixed;fillColor=#f8cecc;strokeColor=#b85450;" vertex="1" parent="1">
          <mxGeometry x="130" y="390" width="80" height="80" as="geometry" />
        </mxCell>
        <mxCell id="jUtKn1EOXljakCH1l-Lu-47" style="edgeStyle=none;shape=connector;rounded=0;orthogonalLoop=1;jettySize=auto;html=1;entryX=0;entryY=0.5;entryDx=0;entryDy=0;strokeColor=default;align=center;verticalAlign=middle;fontFamily=Helvetica;fontSize=11;fontColor=default;labelBackgroundColor=default;endArrow=classic;" edge="1" parent="1" source="jUtKn1EOXljakCH1l-Lu-10" target="jUtKn1EOXljakCH1l-Lu-5">
          <mxGeometry relative="1" as="geometry" />
        </mxCell>
        <mxCell id="jUtKn1EOXljakCH1l-Lu-10" value="" style="ellipse;whiteSpace=wrap;html=1;aspect=fixed;fillColor=#dae8fc;strokeColor=#6c8ebf;" vertex="1" parent="1">
          <mxGeometry x="385" y="70" width="80" height="80" as="geometry" />
        </mxCell>
        <mxCell id="jUtKn1EOXljakCH1l-Lu-44" style="edgeStyle=none;shape=connector;rounded=0;orthogonalLoop=1;jettySize=auto;html=1;entryX=0.5;entryY=0;entryDx=0;entryDy=0;strokeColor=default;align=center;verticalAlign=middle;fontFamily=Helvetica;fontSize=11;fontColor=default;labelBackgroundColor=default;endArrow=classic;" edge="1" parent="1" source="jUtKn1EOXljakCH1l-Lu-11" target="jUtKn1EOXljakCH1l-Lu-4">
          <mxGeometry relative="1" as="geometry" />
        </mxCell>
        <mxCell id="jUtKn1EOXljakCH1l-Lu-11" value="" style="ellipse;whiteSpace=wrap;html=1;aspect=fixed;fillColor=#f8cecc;strokeColor=#b85450;" vertex="1" parent="1">
          <mxGeometry x="220" y="190" width="80" height="80" as="geometry" />
        </mxCell>
        <mxCell id="jUtKn1EOXljakCH1l-Lu-33" style="edgeStyle=none;shape=connector;rounded=0;orthogonalLoop=1;jettySize=auto;html=1;strokeColor=default;align=center;verticalAlign=middle;fontFamily=Helvetica;fontSize=11;fontColor=default;labelBackgroundColor=default;endArrow=classic;" edge="1" parent="1" source="jUtKn1EOXljakCH1l-Lu-12" target="jUtKn1EOXljakCH1l-Lu-8">
          <mxGeometry relative="1" as="geometry" />
        </mxCell>
        <mxCell id="jUtKn1EOXljakCH1l-Lu-12" value="" style="ellipse;whiteSpace=wrap;html=1;aspect=fixed;fillColor=#dae8fc;strokeColor=#6c8ebf;" vertex="1" parent="1">
          <mxGeometry x="540" y="440" width="80" height="80" as="geometry" />
        </mxCell>
        <mxCell id="jUtKn1EOXljakCH1l-Lu-36" style="edgeStyle=none;shape=connector;rounded=0;orthogonalLoop=1;jettySize=auto;html=1;entryX=1;entryY=0.5;entryDx=0;entryDy=0;strokeColor=default;align=center;verticalAlign=middle;fontFamily=Helvetica;fontSize=11;fontColor=default;labelBackgroundColor=default;endArrow=classic;" edge="1" parent="1" source="jUtKn1EOXljakCH1l-Lu-13" target="jUtKn1EOXljakCH1l-Lu-15">
          <mxGeometry relative="1" as="geometry" />
        </mxCell>
        <mxCell id="jUtKn1EOXljakCH1l-Lu-13" value="" style="ellipse;whiteSpace=wrap;html=1;aspect=fixed;fillColor=#dae8fc;strokeColor=#6c8ebf;" vertex="1" parent="1">
          <mxGeometry x="385" y="480" width="80" height="80" as="geometry" />
        </mxCell>
        <mxCell id="jUtKn1EOXljakCH1l-Lu-35" style="edgeStyle=none;shape=connector;rounded=0;orthogonalLoop=1;jettySize=auto;html=1;entryX=1;entryY=1;entryDx=0;entryDy=0;strokeColor=default;align=center;verticalAlign=middle;fontFamily=Helvetica;fontSize=11;fontColor=default;labelBackgroundColor=default;endArrow=classic;" edge="1" parent="1" source="jUtKn1EOXljakCH1l-Lu-14" target="jUtKn1EOXljakCH1l-Lu-13">
          <mxGeometry relative="1" as="geometry" />
        </mxCell>
        <mxCell id="jUtKn1EOXljakCH1l-Lu-14" value="" style="ellipse;whiteSpace=wrap;html=1;aspect=fixed;fillColor=#dae8fc;strokeColor=#6c8ebf;" vertex="1" parent="1">
          <mxGeometry x="560" y="590" width="80" height="80" as="geometry" />
        </mxCell>
        <mxCell id="jUtKn1EOXljakCH1l-Lu-37" style="edgeStyle=none;shape=connector;rounded=0;orthogonalLoop=1;jettySize=auto;html=1;strokeColor=default;align=center;verticalAlign=middle;fontFamily=Helvetica;fontSize=11;fontColor=default;labelBackgroundColor=default;endArrow=classic;" edge="1" parent="1" source="jUtKn1EOXljakCH1l-Lu-15" target="jUtKn1EOXljakCH1l-Lu-9">
          <mxGeometry relative="1" as="geometry" />
        </mxCell>
        <mxCell id="jUtKn1EOXljakCH1l-Lu-15" value="" style="ellipse;whiteSpace=wrap;html=1;aspect=fixed;fillColor=#f8cecc;strokeColor=#b85450;" vertex="1" parent="1">
          <mxGeometry x="40" y="490" width="80" height="80" as="geometry" />
        </mxCell>
        <mxCell id="jUtKn1EOXljakCH1l-Lu-21" value="" style="endArrow=none;html=1;rounded=0;entryX=0.5;entryY=0;entryDx=0;entryDy=0;" edge="1" parent="1" target="jUtKn1EOXljakCH1l-Lu-13">
          <mxGeometry width="50" height="50" relative="1" as="geometry">
            <mxPoint x="400" y="430" as="sourcePoint" />
            <mxPoint x="420" y="470" as="targetPoint" />
            <Array as="points">
              <mxPoint x="400" y="430" />
            </Array>
          </mxGeometry>
        </mxCell>
        <mxCell id="jUtKn1EOXljakCH1l-Lu-22" value="" style="endArrow=none;html=1;rounded=0;entryX=1;entryY=1;entryDx=0;entryDy=0;exitX=0;exitY=0.5;exitDx=0;exitDy=0;" edge="1" parent="1" source="jUtKn1EOXljakCH1l-Lu-6" target="jUtKn1EOXljakCH1l-Lu-2">
          <mxGeometry width="50" height="50" relative="1" as="geometry">
            <mxPoint x="400" y="230" as="sourcePoint" />
            <mxPoint x="450" y="180" as="targetPoint" />
          </mxGeometry>
        </mxCell>
        <mxCell id="jUtKn1EOXljakCH1l-Lu-23" value="" style="endArrow=none;html=1;rounded=0;exitX=0.5;exitY=0;exitDx=0;exitDy=0;entryX=0.613;entryY=1.025;entryDx=0;entryDy=0;entryPerimeter=0;" edge="1" parent="1" source="jUtKn1EOXljakCH1l-Lu-6" target="jUtKn1EOXljakCH1l-Lu-10">
          <mxGeometry width="50" height="50" relative="1" as="geometry">
            <mxPoint x="400" y="230" as="sourcePoint" />
            <mxPoint x="450" y="180" as="targetPoint" />
          </mxGeometry>
        </mxCell>
        <mxCell id="jUtKn1EOXljakCH1l-Lu-24" value="" style="endArrow=none;html=1;rounded=0;exitX=1;exitY=0.5;exitDx=0;exitDy=0;entryX=0;entryY=0.5;entryDx=0;entryDy=0;" edge="1" parent="1" source="jUtKn1EOXljakCH1l-Lu-6" target="jUtKn1EOXljakCH1l-Lu-7">
          <mxGeometry width="50" height="50" relative="1" as="geometry">
            <mxPoint x="400" y="230" as="sourcePoint" />
            <mxPoint x="450" y="180" as="targetPoint" />
          </mxGeometry>
        </mxCell>
        <mxCell id="jUtKn1EOXljakCH1l-Lu-34" style="edgeStyle=none;shape=connector;rounded=0;orthogonalLoop=1;jettySize=auto;html=1;entryX=0.425;entryY=0.013;entryDx=0;entryDy=0;entryPerimeter=0;strokeColor=default;align=center;verticalAlign=middle;fontFamily=Helvetica;fontSize=11;fontColor=default;labelBackgroundColor=default;endArrow=classic;" edge="1" parent="1" source="jUtKn1EOXljakCH1l-Lu-12" target="jUtKn1EOXljakCH1l-Lu-14">
          <mxGeometry relative="1" as="geometry" />
        </mxCell>
        <mxCell id="jUtKn1EOXljakCH1l-Lu-38" style="edgeStyle=none;shape=connector;rounded=0;orthogonalLoop=1;jettySize=auto;html=1;entryX=0.613;entryY=1.025;entryDx=0;entryDy=0;entryPerimeter=0;strokeColor=default;align=center;verticalAlign=middle;fontFamily=Helvetica;fontSize=11;fontColor=default;labelBackgroundColor=default;endArrow=classic;" edge="1" parent="1" source="jUtKn1EOXljakCH1l-Lu-9" target="jUtKn1EOXljakCH1l-Lu-3">
          <mxGeometry relative="1" as="geometry" />
        </mxCell>
        <mxCell id="jUtKn1EOXljakCH1l-Lu-41" style="edgeStyle=none;shape=connector;rounded=0;orthogonalLoop=1;jettySize=auto;html=1;entryX=0.038;entryY=0.663;entryDx=0;entryDy=0;entryPerimeter=0;strokeColor=default;align=center;verticalAlign=middle;fontFamily=Helvetica;fontSize=11;fontColor=default;labelBackgroundColor=default;endArrow=classic;" edge="1" parent="1" source="jUtKn1EOXljakCH1l-Lu-1" target="jUtKn1EOXljakCH1l-Lu-2">
          <mxGeometry relative="1" as="geometry" />
        </mxCell>
        <mxCell id="jUtKn1EOXljakCH1l-Lu-42" style="edgeStyle=none;shape=connector;rounded=0;orthogonalLoop=1;jettySize=auto;html=1;exitX=0.5;exitY=0;exitDx=0;exitDy=0;strokeColor=default;align=center;verticalAlign=middle;fontFamily=Helvetica;fontSize=11;fontColor=default;labelBackgroundColor=default;endArrow=classic;" edge="1" parent="1" source="jUtKn1EOXljakCH1l-Lu-11" target="jUtKn1EOXljakCH1l-Lu-11">
          <mxGeometry relative="1" as="geometry" />
        </mxCell>
        <mxCell id="jUtKn1EOXljakCH1l-Lu-43" style="edgeStyle=none;shape=connector;rounded=0;orthogonalLoop=1;jettySize=auto;html=1;entryX=0.363;entryY=0.963;entryDx=0;entryDy=0;entryPerimeter=0;strokeColor=default;align=center;verticalAlign=middle;fontFamily=Helvetica;fontSize=11;fontColor=default;labelBackgroundColor=default;endArrow=classic;" edge="1" parent="1" source="jUtKn1EOXljakCH1l-Lu-11" target="jUtKn1EOXljakCH1l-Lu-2">
          <mxGeometry relative="1" as="geometry" />
        </mxCell>
      </root>
    </mxGraphModel>
  </diagram>
</mxfile>
